# xmcd
#
# Track frame offsets:
#	300
#	4351
#	7734
#	11405
#	14880
#	18487
#	22084
#	25663
#	29207
#	32743
#	36353
#	39887
#	43415
#
# Disc length: 624 seconds
#
# Revision: 0
# Processed by: cddbd v1.5.2PL0 Copyright (c) Steve Scherf et al.
# Submitted via: audiograbber 1.83.01
#
DISCID=a1026c0d
DTITLE=Annett Louisan - Teilzeithippie TEASER
DYEAR=2008
DGENRE=Swing
TTITLE0=das schlechte gewissen TEASER
TTITLE1=sexy loverboy TEASER
TTITLE2=gekommen um zu sagen TEASER
TTITLE3=die siezgelegenheit TEASER
TTITLE4=ich brauch stoff TEASER
TTITLE5=die nächste liebe meines lebens TEASER
TTITLE6=wir nicht TEASER
TTITLE7=drück die 1 TEASER
TTITLE8=teilzeithippie TEASER
TTITLE9=gedanken lesen TEASER
TTITLE10=ich bin dagegen TEASER
TTITLE11=je später der abend TEASER
TTITLE12=auf dich hab ich gewartet TEASER
EXTD=
EXTT0=
EXTT1=
EXTT2=
EXTT3=
EXTT4=
EXTT5=
EXTT6=
EXTT7=
EXTT8=
EXTT9=
EXTT10=
EXTT11=
EXTT12=
PLAYORDER=
